<mxfile host="app.diagrams.net" modified="2022-05-11T06:57:42.654Z" agent="5.0 (Windows NT 10.0; Win64; x64) AppleWebKit/537.36 (KHTML, like Gecko) Chrome/101.0.4951.54 Safari/537.36" etag="hSNf6CkqG-NpPb8wES3H" version="18.0.2" type="github" pages="2">
  <diagram id="eppSwXkaNi2oblWaMij-" name="SearchBar ">
    <mxGraphModel dx="1422" dy="772" grid="1" gridSize="10" guides="1" tooltips="1" connect="1" arrows="1" fold="1" page="1" pageScale="1" pageWidth="850" pageHeight="1100" math="0" shadow="1">
      <root>
        <mxCell id="0" />
        <mxCell id="1" parent="0" />
        <mxCell id="-86XxH-CeaesjkXvvFQx-5" value="" style="edgeStyle=orthogonalEdgeStyle;rounded=1;orthogonalLoop=1;jettySize=auto;html=1;exitX=0.5;exitY=1;exitDx=0;exitDy=0;" parent="1" source="-86XxH-CeaesjkXvvFQx-11" edge="1">
          <mxGeometry relative="1" as="geometry">
            <mxPoint x="140" y="280" as="sourcePoint" />
            <mxPoint x="140" y="310" as="targetPoint" />
            <Array as="points" />
          </mxGeometry>
        </mxCell>
        <mxCell id="-86XxH-CeaesjkXvvFQx-14" value="" style="edgeStyle=orthogonalEdgeStyle;rounded=1;orthogonalLoop=1;jettySize=auto;html=1;entryX=0;entryY=0.5;entryDx=0;entryDy=0;" parent="1" source="-86XxH-CeaesjkXvvFQx-4" target="-86XxH-CeaesjkXvvFQx-6" edge="1">
          <mxGeometry relative="1" as="geometry">
            <mxPoint x="10" y="360" as="targetPoint" />
            <Array as="points">
              <mxPoint x="60" y="360" />
              <mxPoint x="60" y="70" />
            </Array>
          </mxGeometry>
        </mxCell>
        <mxCell id="Ek6EL9OVdouqW7hfcoPe-1" value="non" style="edgeLabel;html=1;align=center;verticalAlign=middle;resizable=0;points=[];" vertex="1" connectable="0" parent="-86XxH-CeaesjkXvvFQx-14">
          <mxGeometry x="-0.0627" y="-3" relative="1" as="geometry">
            <mxPoint x="-3" y="32" as="offset" />
          </mxGeometry>
        </mxCell>
        <mxCell id="-86XxH-CeaesjkXvvFQx-16" value="" style="edgeStyle=orthogonalEdgeStyle;rounded=1;orthogonalLoop=1;jettySize=auto;html=1;" parent="1" source="-86XxH-CeaesjkXvvFQx-4" edge="1">
          <mxGeometry relative="1" as="geometry">
            <mxPoint x="140" y="510" as="targetPoint" />
          </mxGeometry>
        </mxCell>
        <mxCell id="-86XxH-CeaesjkXvvFQx-4" value="&lt;span style=&quot;&quot;&gt;test si les caractères sont valides&lt;/span&gt;" style="rhombus;whiteSpace=wrap;html=1;rounded=1;" parent="1" vertex="1">
          <mxGeometry x="85" y="310" width="110" height="100" as="geometry" />
        </mxCell>
        <mxCell id="-86XxH-CeaesjkXvvFQx-12" value="" style="edgeStyle=orthogonalEdgeStyle;rounded=1;orthogonalLoop=1;jettySize=auto;html=1;" parent="1" source="-86XxH-CeaesjkXvvFQx-6" target="-86XxH-CeaesjkXvvFQx-11" edge="1">
          <mxGeometry relative="1" as="geometry" />
        </mxCell>
        <mxCell id="-86XxH-CeaesjkXvvFQx-6" value="sélection du champs" style="whiteSpace=wrap;html=1;rounded=1;" parent="1" vertex="1">
          <mxGeometry x="80" y="40" width="120" height="60" as="geometry" />
        </mxCell>
        <mxCell id="-86XxH-CeaesjkXvvFQx-11" value="Entrer &amp;lt; 3 caractères" style="whiteSpace=wrap;html=1;rounded=1;" parent="1" vertex="1">
          <mxGeometry x="80" y="180" width="120" height="60" as="geometry" />
        </mxCell>
        <mxCell id="-86XxH-CeaesjkXvvFQx-19" value="" style="edgeStyle=orthogonalEdgeStyle;rounded=1;orthogonalLoop=1;jettySize=auto;html=1;" parent="1" source="-86XxH-CeaesjkXvvFQx-17" edge="1">
          <mxGeometry relative="1" as="geometry">
            <mxPoint x="320" y="575" as="targetPoint" />
          </mxGeometry>
        </mxCell>
        <mxCell id="-86XxH-CeaesjkXvvFQx-21" value="" style="edgeStyle=orthogonalEdgeStyle;rounded=1;orthogonalLoop=1;jettySize=auto;html=1;" parent="1" source="-86XxH-CeaesjkXvvFQx-17" target="-86XxH-CeaesjkXvvFQx-20" edge="1">
          <mxGeometry relative="1" as="geometry" />
        </mxCell>
        <mxCell id="-86XxH-CeaesjkXvvFQx-17" value="&lt;span style=&quot;&quot;&gt;recherche d&#39;élément dans les titres&lt;/span&gt;" style="rhombus;whiteSpace=wrap;html=1;rounded=1;" parent="1" vertex="1">
          <mxGeometry x="75" y="510" width="130" height="130" as="geometry" />
        </mxCell>
        <mxCell id="-86XxH-CeaesjkXvvFQx-29" value="" style="edgeStyle=orthogonalEdgeStyle;rounded=1;orthogonalLoop=1;jettySize=auto;html=1;entryX=1;entryY=0.5;entryDx=0;entryDy=0;startArrow=none;exitX=0.54;exitY=-0.05;exitDx=0;exitDy=0;exitPerimeter=0;" parent="1" source="-86XxH-CeaesjkXvvFQx-32" target="-86XxH-CeaesjkXvvFQx-6" edge="1">
          <mxGeometry relative="1" as="geometry">
            <mxPoint x="520" y="290" as="sourcePoint" />
            <mxPoint x="380" y="128.66668701171875" as="targetPoint" />
            <Array as="points">
              <mxPoint x="721" y="290" />
              <mxPoint x="720" y="290" />
              <mxPoint x="720" y="70" />
            </Array>
          </mxGeometry>
        </mxCell>
        <mxCell id="-86XxH-CeaesjkXvvFQx-31" value="" style="edgeStyle=orthogonalEdgeStyle;rounded=1;orthogonalLoop=1;jettySize=auto;html=1;" parent="1" target="-86XxH-CeaesjkXvvFQx-30" edge="1">
          <mxGeometry relative="1" as="geometry">
            <mxPoint x="380" y="605" as="sourcePoint" />
          </mxGeometry>
        </mxCell>
        <mxCell id="-86XxH-CeaesjkXvvFQx-23" value="" style="edgeStyle=orthogonalEdgeStyle;rounded=1;orthogonalLoop=1;jettySize=auto;html=1;" parent="1" source="-86XxH-CeaesjkXvvFQx-20" edge="1">
          <mxGeometry relative="1" as="geometry">
            <mxPoint x="280" y="580" as="targetPoint" />
          </mxGeometry>
        </mxCell>
        <mxCell id="-86XxH-CeaesjkXvvFQx-25" value="" style="edgeStyle=orthogonalEdgeStyle;rounded=1;orthogonalLoop=1;jettySize=auto;html=1;" parent="1" source="-86XxH-CeaesjkXvvFQx-20" target="-86XxH-CeaesjkXvvFQx-24" edge="1">
          <mxGeometry relative="1" as="geometry" />
        </mxCell>
        <mxCell id="-86XxH-CeaesjkXvvFQx-20" value="&lt;span style=&quot;&quot;&gt;recherche d&#39;élément dans les ingrédients&lt;/span&gt;" style="rhombus;whiteSpace=wrap;html=1;rounded=1;" parent="1" vertex="1">
          <mxGeometry x="75" y="720" width="130" height="125" as="geometry" />
        </mxCell>
        <mxCell id="-86XxH-CeaesjkXvvFQx-27" value="" style="edgeStyle=orthogonalEdgeStyle;rounded=1;orthogonalLoop=1;jettySize=auto;html=1;" parent="1" source="-86XxH-CeaesjkXvvFQx-24" edge="1">
          <mxGeometry relative="1" as="geometry">
            <mxPoint x="280" y="790" as="targetPoint" />
          </mxGeometry>
        </mxCell>
        <mxCell id="-86XxH-CeaesjkXvvFQx-24" value="&lt;span style=&quot;&quot;&gt;recherche d&#39;élément dans les descriptions&lt;/span&gt;" style="rhombus;whiteSpace=wrap;html=1;rounded=1;" parent="1" vertex="1">
          <mxGeometry x="75" y="925" width="130" height="125" as="geometry" />
        </mxCell>
        <mxCell id="-86XxH-CeaesjkXvvFQx-35" value="" style="edgeStyle=orthogonalEdgeStyle;rounded=1;orthogonalLoop=1;jettySize=auto;html=1;" parent="1" source="-86XxH-CeaesjkXvvFQx-30" target="-86XxH-CeaesjkXvvFQx-34" edge="1">
          <mxGeometry relative="1" as="geometry" />
        </mxCell>
        <mxCell id="IVEkrJGPzNWMuQTkS8Yj-2" value="" style="edgeStyle=orthogonalEdgeStyle;rounded=1;orthogonalLoop=1;jettySize=auto;html=1;" parent="1" source="-86XxH-CeaesjkXvvFQx-30" target="IVEkrJGPzNWMuQTkS8Yj-1" edge="1">
          <mxGeometry relative="1" as="geometry" />
        </mxCell>
        <mxCell id="-86XxH-CeaesjkXvvFQx-30" value="fusion des tableaux de recettes" style="whiteSpace=wrap;html=1;rounded=1;" parent="1" vertex="1">
          <mxGeometry x="320" y="685" width="120" height="60" as="geometry" />
        </mxCell>
        <mxCell id="-86XxH-CeaesjkXvvFQx-34" value="rendu des cartes" style="whiteSpace=wrap;html=1;rounded=1;" parent="1" vertex="1">
          <mxGeometry x="320" y="825" width="120" height="60" as="geometry" />
        </mxCell>
        <mxCell id="-86XxH-CeaesjkXvvFQx-32" value="Pas de correspondances" style="text;html=1;align=center;verticalAlign=middle;resizable=0;points=[];autosize=1;strokeColor=none;fillColor=none;rounded=1;" parent="1" vertex="1">
          <mxGeometry x="640" y="290" width="150" height="20" as="geometry" />
        </mxCell>
        <mxCell id="-86XxH-CeaesjkXvvFQx-37" value="" style="edgeStyle=orthogonalEdgeStyle;rounded=1;orthogonalLoop=1;jettySize=auto;html=1;endArrow=none;exitX=0.5;exitY=1;exitDx=0;exitDy=0;entryX=0.527;entryY=0.9;entryDx=0;entryDy=0;entryPerimeter=0;" parent="1" source="-86XxH-CeaesjkXvvFQx-24" target="-86XxH-CeaesjkXvvFQx-32" edge="1">
          <mxGeometry relative="1" as="geometry">
            <mxPoint x="140" y="1050" as="sourcePoint" />
            <mxPoint x="720" y="320" as="targetPoint" />
            <Array as="points">
              <mxPoint x="140" y="1080" />
              <mxPoint x="719" y="1080" />
            </Array>
          </mxGeometry>
        </mxCell>
        <mxCell id="IVEkrJGPzNWMuQTkS8Yj-1" value="&lt;span style=&quot;&quot;&gt;envois du tableau pour les tags&lt;/span&gt;" style="shape=singleArrow;whiteSpace=wrap;html=1;arrowWidth=0.4;arrowSize=0.4;rounded=1;" parent="1" vertex="1">
          <mxGeometry x="510" y="667.5" width="120" height="95" as="geometry" />
        </mxCell>
        <mxCell id="Ek6EL9OVdouqW7hfcoPe-2" value="&lt;span style=&quot;&quot;&gt;éléments correspondant&lt;/span&gt;" style="ellipse;whiteSpace=wrap;html=1;" vertex="1" parent="1">
          <mxGeometry x="320" y="550" width="120" height="60" as="geometry" />
        </mxCell>
      </root>
    </mxGraphModel>
  </diagram>
  <diagram id="uCCOCP9exXDCUr_HQTZ0" name="Input Tag">
    <mxGraphModel dx="1422" dy="806" grid="1" gridSize="10" guides="1" tooltips="1" connect="1" arrows="1" fold="1" page="1" pageScale="1" pageWidth="850" pageHeight="1100" math="0" shadow="0">
      <root>
        <mxCell id="0" />
        <mxCell id="1" parent="0" />
        <mxCell id="HghpgJ-Q3-ElUpMK8Lbg-3" value="&lt;span style=&quot;&quot;&gt;tableau de&amp;nbsp;&lt;/span&gt;&lt;br style=&quot;&quot;&gt;&lt;span style=&quot;&quot;&gt;base&lt;/span&gt;" style="rounded=1;whiteSpace=wrap;html=1;" vertex="1" parent="1">
          <mxGeometry x="120" y="120" width="120" height="60" as="geometry" />
        </mxCell>
        <mxCell id="HghpgJ-Q3-ElUpMK8Lbg-4" value="nouveau tableau après recherche" style="rounded=1;whiteSpace=wrap;html=1;" vertex="1" parent="1">
          <mxGeometry x="360" y="120" width="120" height="60" as="geometry" />
        </mxCell>
        <mxCell id="HghpgJ-Q3-ElUpMK8Lbg-7" value="" style="edgeStyle=orthogonalEdgeStyle;rounded=1;orthogonalLoop=1;jettySize=auto;html=1;entryX=0.5;entryY=0;entryDx=0;entryDy=0;" edge="1" parent="1" source="HghpgJ-Q3-ElUpMK8Lbg-5" target="HghpgJ-Q3-ElUpMK8Lbg-4">
          <mxGeometry relative="1" as="geometry">
            <mxPoint x="430" y="60" as="targetPoint" />
          </mxGeometry>
        </mxCell>
        <mxCell id="HghpgJ-Q3-ElUpMK8Lbg-11" value="oui" style="edgeLabel;html=1;align=center;verticalAlign=middle;resizable=0;points=[];" vertex="1" connectable="0" parent="HghpgJ-Q3-ElUpMK8Lbg-7">
          <mxGeometry x="-0.6769" relative="1" as="geometry">
            <mxPoint as="offset" />
          </mxGeometry>
        </mxCell>
        <mxCell id="HghpgJ-Q3-ElUpMK8Lbg-9" value="" style="edgeStyle=orthogonalEdgeStyle;rounded=1;orthogonalLoop=1;jettySize=auto;html=1;entryX=0.45;entryY=-0.033;entryDx=0;entryDy=0;entryPerimeter=0;" edge="1" parent="1" source="HghpgJ-Q3-ElUpMK8Lbg-5" target="HghpgJ-Q3-ElUpMK8Lbg-3">
          <mxGeometry relative="1" as="geometry">
            <mxPoint x="195" y="60" as="targetPoint" />
          </mxGeometry>
        </mxCell>
        <mxCell id="HghpgJ-Q3-ElUpMK8Lbg-10" value="non" style="edgeLabel;html=1;align=center;verticalAlign=middle;resizable=0;points=[];" vertex="1" connectable="0" parent="HghpgJ-Q3-ElUpMK8Lbg-9">
          <mxGeometry x="-0.2084" y="-1" relative="1" as="geometry">
            <mxPoint as="offset" />
          </mxGeometry>
        </mxCell>
        <mxCell id="HghpgJ-Q3-ElUpMK8Lbg-5" value="information&lt;br&gt;SearchBar" style="rhombus;whiteSpace=wrap;html=1;rounded=1;" vertex="1" parent="1">
          <mxGeometry x="260" y="10" width="90" height="100" as="geometry" />
        </mxCell>
      </root>
    </mxGraphModel>
  </diagram>
</mxfile>
